<svg xmlns="http://www.w3.org/2000/svg" width="296" height="196">
  <g fill="none" fill-rule="evenodd">
    <path fill="#85F4D3" d="M194.407 42.025a2.442 2.442 0 0 1-1.711.697c-.636 0-1.261-.254-1.715-.697a2.44 2.44 0 0 1-.717-1.713c0-.635.263-1.247.706-1.7.898-.908 2.523-.908 3.42 0 .445.453.707 1.065.707 1.7s-.262 1.261-.706 1.713h.016z"/>
    <path fill="#7A97FF" d="M37.512 70.496c-.36.517-.926.88-1.557.996a2.477 2.477 0 0 1-1.812-.377 2.441 2.441 0 0 1-1.016-1.555 2.449 2.449 0 0 1 .388-1.8c.718-1.055 2.315-1.348 3.362-.618.52.365.888.92 1.003 1.545a2.476 2.476 0 0 1-.384 1.812l.016-.003z"/>
    <path fill="#EDF3F7" d="M52.151 85.347c0 3.032 2.02 5.531 4.654 5.531h.738c1.862 0 4.966 2.027 4.966 4.073v.023c0 2.047-3.104 3.34-4.966 3.34H31.587c-3.07 0-5.584 3.147-5.6 6.517.016 3.37 2.53 6.495 5.6 6.495H33.3c1.863 0 3.386.74 3.386 2.788 0 2.047-1.523 2.789-3.386 2.789H15.927c-2.634.93-5.524 4.562-5.524 7.594v.023c0 3.387 3.39 6.324 6.47 6.324h33.104c.303 0 .6-.028.89-.08l.248.08h-.427c.71 0 1.367.368 1.912.702 5.933-11.037 23.49-19.202 23.49-32.607 0-5.43 2.72-14.567 1.67-19.214H57.751c-3.08 0-5.6 2.236-5.6 5.622M244 89.99c0 2.765-1.841 5.535-4.243 5.535h-.673c-1.698 0-2.578 2.583-2.578 4.45v.02c0 1.867.88 3.895 2.578 3.895h23.668c2.8 0 5.091 2.979 5.107 6.052-.016 3.073-2.308 6.03-5.107 6.03h-1.563c-1.697 0-3.086.458-3.086 2.324 0 1.867 1.39 2.324 3.086 2.324h15.842c2.402.93 3.207 3.531 3.207 6.295v.021c0 3.088-1.261 4.837-4.07 4.837h-30.185a4.59 4.59 0 0 1-.812-.072l-.226.072h.39c-.647 0-19.603.8-20.1 1.104-5.41-10.063-14.135-21.698-14.135-33.92 0-4.951-13.987-8.079-13.029-14.585h40.823c2.809 0 5.107 2.53 5.107 5.618M56.965 133.678c0 3.032 2.02 5.531 4.654 5.531h.738c1.862 0 4.805 2.06 4.805 4.106v.024c0 2.047-2.943 3.306-4.805 3.306H36.4c-3.07 0-5.584 3.147-5.6 6.517.016 3.37 2.53 6.495 5.6 6.495h1.713c1.862 0 3.386.74 3.386 2.788 0 2.047-1.524 2.788-3.386 2.788H20.74c-2.634.93-4.755 4.597-4.755 7.63v.021c0 3.387 2.621 7.22 5.701 7.22H54.79c.303 0 .6-.028.89-.08l.248.08h-.427c.71 0 1.367-.08 1.912.254 5.933-11.037 23.49-19.443 23.49-32.847 0-5.43-2.862-15.737-3.914-19.455H62.565c-3.08 0-5.6 2.235-5.6 5.622"/>
    <path fill="#EDF3F7" d="M230.108 137.392c0 2.764-1.843 6.464-4.244 6.464h-.673c-1.698 0-2.642 1.517-2.642 3.384v.02c0 1.867.944 4.031 2.642 4.031h23.668c2.8 0 5.091 2.515 5.107 5.587-.016 3.074-2.308 5.567-5.107 5.567h-1.563c-1.697 0-3.086.457-3.086 2.323 0 1.867 1.39 2.324 3.086 2.324h15.842c2.402.93 3.142 4.325 3.142 7.089v.02c0 3.089-1.196 5.903-4.005 5.903H232.09a4.59 4.59 0 0 1-.812-.073l-.226.073h.39c-.647 0-19.603.268-20.1.572-5.41-10.063-14.135-22.362-14.135-34.584 0-4.95-13.987-7.813-13.029-15.248H225c2.81 0 5.108 3.46 5.108 6.548"/>
    <path fill="#FFF" d="M218.62 175.763H82.318a5.774 5.774 0 0 1-5.778-5.772V82.352a5.774 5.774 0 0 1 5.778-5.77H218.62a5.774 5.774 0 0 1 5.779 5.77v87.64a5.775 5.775 0 0 1-5.779 5.771"/>
    <path fill="#5E7796" d="M82.318 77.51a4.85 4.85 0 0 0-4.848 4.842v87.64a4.85 4.85 0 0 0 4.848 4.842h136.303a4.85 4.85 0 0 0 4.847-4.843V82.352a4.85 4.85 0 0 0-4.847-4.841H82.318zm136.303 99.183H82.318c-3.7 0-6.709-3.006-6.709-6.702V82.352c0-3.695 3.01-6.7 6.71-6.7H218.62c3.698 0 6.707 3.005 6.707 6.7v87.64c0 3.695-3.009 6.7-6.707 6.7z"/>
    <path fill="#C8FAE9" d="M216.524 169.89H84.414V87.73a3.414 3.414 0 0 1 3.416-3.412h125.087a3.606 3.606 0 0 1 3.607 3.604v81.968z"/>
    <path fill="#85F4D3" d="M217.539 126.182c0-2.879-.573-5.707-.573-8.487v17.073c0-2.81.573-5.675.573-8.586"/>
    <path fill="#B2F8E1" d="M105.993 126.378c0-18.941 11.581-35.5 28.054-42.006h-31.156c-9.596 11.153-15.397 25.864-15.397 41.833 0 16.858 6.47 32.522 17.045 43.675h33.653c-18.642-5.577-32.2-23.007-32.2-43.502m110.974-8.683c-1.86-12.638-7.4-24.029-15.266-33.323h-32.598c16.473 6.506 28.055 23.065 28.055 42.007 0 20.494-13.556 37.924-32.199 43.501h35.112c8.744-9.294 15.035-21.66 16.896-35.113v-17.072z"/>
    <path fill="#96F5D7" d="M105.993 126.378c0 20.495 13.557 37.925 32.2 43.502h26.765c18.643-5.577 32.199-23.007 32.199-43.502 0-18.941-11.582-35.5-28.055-42.006h-35.055c-16.473 6.506-28.054 23.065-28.054 42.006"/>
    <path fill="#FFF" d="M234.162 169.89H66.033c-.731 0-1.485.458-1.485 1.346v3.244c0 1.142 1.563 6.164 19.078 6.164h132.942c17.516 0 19.08-5.022 19.08-6.164v-3.244c0-.888-.755-1.346-1.486-1.346"/>
    <path fill="#5E7796" d="M66.033 170.587c-.032 0-.787.008-.787.649v3.244c0 .054.21 5.466 18.38 5.466H216.57c18.17 0 18.38-5.412 18.38-5.466v-3.244c0-.641-.754-.649-.787-.649H66.033zm150.536 10.754H83.626c-18.822 0-19.776-5.715-19.776-6.861v-3.244c0-1.326 1.125-2.043 2.183-2.043h168.13c1.057 0 2.182.717 2.182 2.043v3.244c0 1.146-.954 6.86-19.776 6.86z"/>
    <path fill="#DBE7EF" d="M74.722 180.901l154.4-1.136 5.903-3.869H65.914z"/>
    <path fill="#C8DAE7" d="M162.642 174.179h-24.088c-.924 0-1.812-.434-2.565-1.257l-2.594-2.836 1.03-.94 2.595 2.836c.335.366.874.803 1.534.803h24.088c.642 0 1.3-.424 1.85-1.195l2.01-2.809 1.136.81-2.01 2.81c-.82 1.147-1.88 1.778-2.986 1.778"/>
    <path fill="#5E7796" d="M66.033 170.82c-.093 0-.554.019-.554.416v3.244c0 1.455 3.26 5.234 18.147 5.234H216.57c14.888 0 18.148-3.779 18.148-5.234v-3.244c0-.404-.498-.417-.555-.417H66.033zm150.536 10.753H83.626c-19.043 0-20.008-5.91-20.008-7.093v-3.244c0-1.297 1.038-2.275 2.415-2.275h168.13c1.376 0 2.415.978 2.415 2.275v3.244c0 1.184-.965 7.093-20.009 7.093z"/>
    <path fill="#FFF" d="M62.203 181.4l-29.085.089a3.73 3.73 0 0 1-3.733-3.707l-.179-58.185a3.732 3.732 0 0 1 3.711-3.73l29.084-.088a3.73 3.73 0 0 1 3.734 3.706l.179 58.185a3.731 3.731 0 0 1-3.71 3.73"/>
    <path fill="#9CADC1" d="M62.014 116.476h-.01l-29.085.09a3.024 3.024 0 0 0-3.015 3.028l.179 58.186c.002.803.32 1.56.895 2.13a3.004 3.004 0 0 0 2.129.881h.01l29.084-.088a3.005 3.005 0 0 0 2.132-.895 2.996 2.996 0 0 0 .882-2.135l-.177-58.186a2.999 2.999 0 0 0-.896-2.13 3 3 0 0 0-2.128-.88zm-28.907 65.71a4.39 4.39 0 0 1-3.112-1.287 4.383 4.383 0 0 1-1.308-3.115L28.51 119.6a4.421 4.421 0 0 1 4.405-4.428l29.086-.09c1.138.014 2.287.454 3.126 1.287a4.383 4.383 0 0 1 1.307 3.115l.178 58.185a4.378 4.378 0 0 1-1.288 3.122 4.389 4.389 0 0 1-3.118 1.307l-29.084.088h-.014z"/>
    <path fill="#85F4D3" d="M65.381 171.638l-35.577.108-.152-49.292 35.578-.109z"/>
    <path fill="#51F0C4" d="M29.804 171.747l34.223-.105-34.366-46.664z"/>
    <path fill="#DBE7EF" d="M61.523 179.02l-27.725.084c-2.42.007-4.408-1.965-4.415-4.383l-.072 2.382c.007 2.418 1.994 4.39 4.415 4.383l27.726-.084c2.42-.008 4.395-1.992 4.388-4.41l-.005-1.6c-.368 2.048-2.159 3.621-4.312 3.627"/>
    <path fill="#C8DAE7" d="M50.195 177.053H45.3a1.463 1.463 0 0 1-1.459-1.458v-.532c0-.802.657-1.457 1.459-1.457h4.896c.802 0 1.46.655 1.46 1.457v.532c0 .801-.658 1.458-1.46 1.458m1.945-56.786h-7.494a.587.587 0 0 1-.586-.584v-.214c0-.322.264-.585.586-.585h7.494c.322 0 .586.263.586.585v.214a.587.587 0 0 1-.586.584m-9.795-.691a.692.692 0 1 0-1.384 0 .692.692 0 0 0 1.384 0"/>
    <path fill="#516A8B" d="M62.014 116.708h-.01l-29.085.09a2.792 2.792 0 0 0-2.782 2.796l.179 58.186a2.793 2.793 0 0 0 2.791 2.779h.008l29.086-.088a2.773 2.773 0 0 0 1.968-.827c.527-.53.817-1.23.814-1.971l-.178-58.185a2.769 2.769 0 0 0-.827-1.966 2.777 2.777 0 0 0-1.964-.814zm-28.907 65.71a4.655 4.655 0 0 1-4.652-4.634l-.179-58.184a4.654 4.654 0 0 1 4.638-4.661l29.085-.09h.015a4.656 4.656 0 0 1 4.652 4.634l.178 58.184a4.613 4.613 0 0 1-1.356 3.288 4.622 4.622 0 0 1-3.282 1.374l-29.085.089h-.014z"/>
    <path fill="#FFF" d="M110.19 123.601c0-18.513-15.025-33.522-33.559-33.522s-33.559 15.009-33.559 33.522c0 18.514 15.025 33.522 33.56 33.522 18.533 0 33.558-15.008 33.558-33.522"/>
    <path fill="#00EEBD" d="M76.631 90.776c-18.12 0-32.86 14.725-32.86 32.825s14.74 32.825 32.86 32.825c18.12 0 32.861-14.725 32.861-32.825s-14.74-32.825-32.86-32.825m0 67.044c-18.89 0-34.258-15.35-34.258-34.219 0-18.868 15.368-34.219 34.257-34.219 18.89 0 34.257 15.35 34.257 34.22 0 18.868-15.367 34.218-34.257 34.218"/>
    <path fill="#FFF" d="M43.072 123.601c0 18.514 15.025 33.522 33.559 33.522 18.535 0 33.559-15.008 33.559-33.522 0-18.513-15.024-33.522-33.56-33.522-18.533 0-33.558 15.009-33.558 33.522"/>
    <path fill="#9BB3FF" d="M55.928 149.974a33.43 33.43 0 0 0 20.703 7.15 33.456 33.456 0 0 0 22.66-8.8c-14.526-6.041-29.623-3.904-35.244-2.22-2.615.784-5.514 2.293-8.119 3.87"/>
    <path fill="#5E7796" d="M56.754 150.022c5.77 4.344 12.628 6.637 19.877 6.637 8.048 0 15.758-2.9 21.795-8.185-13.806-5.487-28.385-3.681-34.246-1.924-2.088.625-4.584 1.793-7.426 3.472m19.877 7.567c-7.685 0-14.944-2.507-20.99-7.25a.463.463 0 0 1 .047-.762c3.151-1.91 5.92-3.227 8.225-3.918 6.068-1.818 21.308-3.69 35.557 2.236a.464.464 0 0 1 .136.772 33.954 33.954 0 0 1-22.975 8.922"/>
    <path fill="#83A7FB" d="M57.029 149.974c2.127 1.668 2.425 2.274 4.92 3.397-2.444-3.325 6.628-6.886 9.87-8.152-1.527.278-5.68.587-6.672.885-2.615.784-5.515 2.293-8.118 3.87"/>
    <path fill="#FFF" d="M80.912 143.764s-1.85 1.194-3.806 1.194c-1.955 0-4.05-1.194-4.05-1.194v-7.26h7.856v7.26z"/>
    <path fill="#5E7796" d="M80.911 143.764h.01-.01zm-7.39-.28c.582.294 2.145 1.009 3.586 1.009 1.423 0 2.82-.702 3.34-.995v-6.529h-6.925v6.515zm3.586 1.938c-2.056 0-4.191-1.203-4.28-1.254a.464.464 0 0 1-.236-.404v-7.26c0-.256.209-.464.466-.464h7.854c.258 0 .466.208.466.464v7.26c0 .157-.08.305-.212.39-.08.052-1.99 1.268-4.058 1.268z"/>
    <path fill="#DFE6FF" d="M80.188 144.402v.08s-1.487 1.23-3.504 1.23c-1.747 0-3.386-.92-3.851-1.168-1.22.103-2.267.235-3.327.39 1.073 1.058 3.713 3.112 7.646 3.112 4.324 0 6.169-2.484 6.847-3.397-1.163-.12-2.88-.195-3.81-.247"/>
    <path fill="#5E7796" d="M57.174 150.045c5.67 4.178 12.376 6.381 19.458 6.381 7.862 0 15.4-2.788 21.35-7.876-13.639-5.293-27.951-3.51-33.735-1.778-1.997.599-4.373 1.698-7.073 3.273m19.458 7.775c-7.74 0-15.047-2.523-21.135-7.298a.698.698 0 0 1 .07-1.145c3.169-1.918 5.954-3.243 8.28-3.94 6.095-1.827 21.403-3.707 35.712 2.244a.697.697 0 0 1 .203 1.157 34.183 34.183 0 0 1-23.13 8.982"/>
    <path fill="#FFF" d="M80.912 144.693s-1.85 1.194-3.806 1.194c-1.955 0-4.05-1.194-4.05-1.194v-7.259h7.856v7.259z"/>
    <path fill="#5E7796" d="M80.911 144.694h.01-.01zm-7.156-.425c.64.313 2.053.921 3.351.921 1.274 0 2.535-.59 3.108-.899v-6.16h-6.46v6.138zm3.351 2.315c-2.116 0-4.303-1.232-4.395-1.285a.696.696 0 0 1-.352-.605v-7.26c0-.385.313-.697.698-.697h7.855c.385 0 .698.312.698.697v7.26c0 .236-.12.456-.32.584-.082.054-2.047 1.306-4.184 1.306z"/>
    <path fill="#FFF" d="M79.714 139.854h-5.21c-4.3 0-9.077-4.494-9.537-11.191L63.94 114.42c0-6.193 4.754-11.26 10.564-11.26h5.21c5.81 0 10.564 5.067 10.564 11.26l-1.07 14.344c-.66 7.138-3.684 11.09-9.494 11.09"/>
    <path fill="#5E7796" d="M74.505 103.857c-5.44 0-9.867 4.74-9.867 10.563l1.025 14.194c.434 6.307 4.922 10.543 8.842 10.543h5.21c5.268 0 8.146-3.42 8.798-10.457l1.069-14.33c-.002-5.773-4.428-10.513-9.868-10.513h-5.21zm5.21 36.695h-5.21c-4.53 0-9.731-4.528-10.235-11.84l-1.026-14.241c-.002-6.644 5.05-12.008 11.26-12.008h5.21c6.21 0 11.262 5.364 11.262 11.957l-1.072 14.396c-.721 7.791-4.15 11.736-10.19 11.736z"/>
    <path fill="#FFD8E4" d="M72.926 131.942s4.064 1.05 8.368 0"/>
    <path fill="#5E7796" d="M77.2 133.016c-2.491 0-4.312-.46-4.426-.49a.603.603 0 0 1-.433-.734.603.603 0 0 1 .736-.435c.039.01 3.977.998 8.074-.002a.605.605 0 0 1 .287 1.174 17.953 17.953 0 0 1-4.238.487m8.296-11.521a1.456 1.456 0 1 0-2.912.001 1.456 1.456 0 0 0 2.912-.001m1.298-2.775a.698.698 0 0 1-.396-.123c-.091-.063-2.28-1.517-4.886-.119a.697.697 0 1 1-.66-1.229c3.378-1.808 6.222.118 6.34.201a.696.696 0 0 1-.398 1.27m-15.055 2.75a1.456 1.456 0 1 0-2.913 0 1.456 1.456 0 0 0 2.913 0m1.298-2.776a.698.698 0 0 1-.396-.122c-.092-.064-2.28-1.517-4.886-.12a.696.696 0 1 1-.66-1.228c3.377-1.809 6.222.118 6.34.2a.696.696 0 0 1-.398 1.27"/>
    <path fill="#FFF" d="M63.353 121.016l-.52.042c-1.276.102-2.242 1.3-2.146 2.661l.566 2.617c.097 1.361 1.22 2.39 2.496 2.289l.52-.042c.347-.028.286-.142.572-.314l-.512-7.1a2.153 2.153 0 0 0-.976-.153"/>
    <path fill="#5E7796" d="M63.353 121.016h.01-.01zm-1.972 2.608l.554 2.565a.587.587 0 0 1 .014.098c.035.494.262.955.623 1.265.32.276.72.41 1.122.377l.42-.033-.445-6.182a1.428 1.428 0 0 0-.26-.003l-.52.041c-.885.072-1.554.906-1.508 1.872zm2.193 5.705c-.695 0-1.366-.25-1.912-.72a3.236 3.236 0 0 1-1.1-2.171l-.557-2.572a.866.866 0 0 1-.014-.099c-.123-1.743 1.127-3.27 2.787-3.404l.52-.042c.435-.033.867.032 1.289.199.248.098.42.33.438.598l.512 7.101a.693.693 0 0 1-.337.648.466.466 0 0 0-.091.073c-.197.185-.397.306-.785.338l-.519.042c-.077.005-.154.009-.231.009z"/>
    <path fill="#FFF" d="M91.356 121.058l-.52-.042c-.339-.027-.666.03-.968.149l-.53 7.098c.29.175.227.292.579.32l.518.041c1.277.104 2.4-.926 2.496-2.288l.572-2.617c.096-1.36-.87-2.559-2.147-2.661"/>
    <path fill="#5E7796" d="M93.503 123.719h.009-.01zm-3.437 4.176l.425.035c.406.034.8-.102 1.122-.377.36-.31.588-.772.622-1.265a.882.882 0 0 1 .014-.1l.56-2.565c.046-.965-.623-1.8-1.509-1.87l-.519-.042a1.45 1.45 0 0 0-.254.003l-.461 6.18zm.546 1.434c-.077 0-.155-.003-.233-.01l-.519-.041c-.392-.032-.593-.156-.792-.345a.416.416 0 0 0-.091-.074.699.699 0 0 1-.335-.648l.53-7.098c.02-.267.191-.499.44-.597.418-.164.848-.23 1.28-.194l.52.041c1.66.133 2.91 1.66 2.787 3.405a.71.71 0 0 1-.014.1l-.561 2.57a3.243 3.243 0 0 1-1.101 2.171 2.922 2.922 0 0 1-1.911.72z"/>
    <path fill="#F0F4FF" d="M88.547 154.946l-11.916 2.177-12.218-2.296-3.564-1.455h31.565z"/>
    <path fill="#00EEBD" d="M76.631 91.009c-17.991 0-32.628 14.62-32.628 32.592s14.637 32.593 32.628 32.593c17.992 0 32.629-14.621 32.629-32.593 0-17.971-14.637-32.592-32.629-32.592m0 67.044c-19.017 0-34.49-15.455-34.49-34.452S57.615 89.15 76.632 89.15c19.018 0 34.49 15.454 34.49 34.451s-15.472 34.452-34.49 34.452"/>
    <path fill="#85F4D3" d="M92.538 121.168c.009-.911.02-2.363.013-3.928l.174-2.185c0-5.101-.345-11.95-7.505-11.456-.126-.068-.25-.124-.375-.19-.888-1.273-3.317-3.986-9.774-5.188-7.582-1.413-3.891.62-1.337 2.274-.644.003-3.356-.686-4.839-.673-2.813.024-1.235.762.675 2.053-6 1.32-7.924 4.773-9.006 6.9-1.204 2.368-.544 1.839 1.742 1.277-1.25 4.043-.73 11.102-.4 11.092 1.242-.035 2.68 3.586 2.68 3.586.093.136-.118-.08 0 0-.008-.101.753-7.198.75-7.303-.084-2.437-.178-4.476.34-5.23 1.622-2.358 11.158-2.877 14.305-2.723-.443 1.689-2.316 2.73-.998 2.642 1.257-.084 4.35-1.741 5.108-2.328 2.541.503 3.136 1.041 4.507 2.596 1.315 1.49.805 2.837.721 5.273-.003.09-.103 5.226.19 6.81 0 0 2.185-3.34 3.029-3.299"/>
    <path fill="#5E7796" d="M84.09 109.324c.03 0 .061.003.091.01 2.62.517 3.31 1.093 4.766 2.743 1.157 1.313 1.056 2.572.928 4.165-.035.435-.073.907-.092 1.43-.013.517-.054 3.551.06 5.487.695-.962 1.544-1.977 2.233-2.328.008-.91.016-2.205.01-3.59l.175-2.224c-.002-3.556-.186-7.562-2.394-9.62-1.11-1.035-2.62-1.472-4.616-1.334a.514.514 0 0 1-.254-.056c-.069-.037-.137-.07-.205-.105l-.16-.08a.469.469 0 0 1-.169-.147c-1.18-1.695-3.784-3.936-9.477-4.997-2.334-.435-3.348-.493-3.78-.466.436.398 1.455 1.046 2.114 1.466l.667.427a.464.464 0 0 1 .194.52c-.06.2-.214.349-.452.334-.284 0-.773-.088-1.608-.242-1.055-.195-2.34-.441-3.22-.43a8.12 8.12 0 0 0-.806.038c.26.197.647.45.982.667.238.156.493.322.755.498a.466.466 0 0 1-.161.84c-5.973 1.313-7.742 4.788-8.692 6.655-.277.544-.416.864-.483 1.054.212-.043.514-.125.791-.2.266-.073.57-.155.907-.238a.466.466 0 0 1 .556.588c-1.092 3.535-.772 9.363-.523 10.533.801.223 1.536 1.281 2.065 2.267l.24-2.303c.155-1.474.33-3.145.34-3.278l-.011-.253c-.088-2.537-.153-4.37.432-5.221 1.844-2.682 12.002-3.054 14.71-2.923.14.006.27.076.353.188.083.114.11.258.074.393-.221.846-.755 1.537-1.122 2.001 1.295-.302 3.832-1.656 4.498-2.172a.461.461 0 0 1 .285-.097M64.62 125.23a.527.527 0 0 1-.371-.15.63.63 0 0 1-.147-.335c-.627-1.529-1.65-3.196-2.176-3.196h-.016c-.15 0-.32-.06-.408-.176-.49-.644-.771-6.793.145-10.685-.04.01-.079.029-.117.04-.99.269-1.534.42-1.87.006-.328-.402-.124-.968.488-2.172.894-1.757 2.7-5.305 8.282-6.882-1.084-.708-1.672-1.118-1.504-1.687.152-.522.808-.627 1.965-.637.784-.001 1.783.155 2.723.323-1.18-.798-1.703-1.313-1.482-1.873.237-.605 1.08-.778 5.024-.044 5.897 1.1 8.69 3.459 10 5.283l.047.024c.039.018.077.038.116.057 2.169-.128 3.916.41 5.182 1.59 2.48 2.313 2.688 6.548 2.688 10.338l-.175 2.221a254.78 254.78 0 0 1-.012 3.897.463.463 0 0 1-.146.334.433.433 0 0 1-.328.126c-.381.085-1.607 1.52-2.631 3.087a.467.467 0 0 1-.847-.17c-.308-1.662-.199-6.858-.197-6.907.019-.542.058-1.028.094-1.475.124-1.534.198-2.46-.699-3.476-1.297-1.47-1.798-1.942-4.052-2.408-.96.654-3.853 2.207-5.184 2.296-.207.013-.691.044-.892-.335-.204-.388.076-.744.43-1.194.242-.305.546-.69.766-1.133-3.856-.077-11.93.612-13.257 2.543-.41.597-.342 2.572-.27 4.663l.01.287c.003.062.004.08-.342 3.373a444.392 444.392 0 0 0-.403 3.909.488.488 0 0 1-.148.441.448.448 0 0 1-.286.097"/>
    <path fill="#EDF3F7" d="M75.542 134.74c.344-.541 1.13-.693 1.872-.693.741 0 1.731.324 1.904.92.172.594-.856.443-2.179.46-1.727.022-1.942-.147-1.597-.688"/>
    <path fill="#00EEBD" d="M65.31 107.132c.627-1.605 1.009-3.458 4.26-5.256-5.999 1.318-7.923 4.772-9.006 6.899-1.205 2.367-.544 1.84 1.742 1.277-1.25 4.044-.73 11.102-.4 11.093 1.242-.036 2.375 2.888 2.375 2.888.093.136-.118-.081 0 0-.008-.102 1.058-6.501 1.055-6.606-.046-1.323-.09-2.518-.042-3.464-.373-1.162-.725-4.938.015-6.831"/>
    <path fill="#5E7796" d="M84.09 109.091c.046 0 .091.005.137.013 2.677.53 3.43 1.159 4.894 2.82 1.224 1.386 1.118 2.688.986 4.337-.035.431-.072.9-.09 1.42-.015.544-.047 2.961.025 4.817.693-.898 1.295-1.5 1.802-1.802.008-.9.015-2.136.009-3.453l.177-2.244c-.003-3.49-.182-7.437-2.322-9.432-1.06-.989-2.516-1.407-4.44-1.272a.68.68 0 0 1-.382-.084l-.362-.182a.701.701 0 0 1-.252-.221c-1.156-1.659-3.713-3.856-9.328-4.901-1.517-.284-2.46-.402-3.043-.445.477.341 1.098.736 1.544 1.02l.669.428a.697.697 0 0 1-.376 1.281c-.33.036-.804-.087-1.658-.245-1.046-.193-2.356-.422-3.178-.427l-.121.001.422.278c.24.156.496.323.759.5a.698.698 0 0 1-.241 1.259c-5.866 1.289-7.602 4.7-8.535 6.534-.129.253-.226.455-.299.615l.339-.091a39.9 39.9 0 0 1 .912-.24.7.7 0 0 1 .834.883c-1.053 3.408-.782 8.922-.543 10.288.645.248 1.228.937 1.706 1.702l.166-1.586c.168-1.599.327-3.109.338-3.269l-.01-.23c-.09-2.581-.156-4.447.472-5.36 2.037-2.963 12.983-3.122 14.914-3.025a.695.695 0 0 1 .64.873c-.153.585-.443 1.095-.732 1.511 1.319-.483 3.203-1.508 3.74-1.925a.7.7 0 0 1 .428-.146m-19.47 16.372a.76.76 0 0 1-.537-.219.774.774 0 0 1-.206-.404c-.625-1.512-1.556-2.948-1.957-2.999a.77.77 0 0 1-.603-.297c-.566-.744-.788-6.632.02-10.516-.87.232-1.462.342-1.858-.143-.444-.544-.122-1.28.462-2.426.884-1.736 2.642-5.192 7.946-6.858-.882-.596-1.372-1.036-1.185-1.672.213-.728 1.117-.795 2.187-.804.504-.002 1.146.066 1.791.164-.673-.55-.978-1.028-.765-1.566.298-.754 1.13-.96 5.283-.187 5.923 1.103 8.763 3.475 10.114 5.328l.056.028c2.211-.112 3.991.442 5.292 1.655 2.548 2.376 2.762 6.67 2.762 10.508l-.176 2.24a243.61 243.61 0 0 1-.012 3.88.695.695 0 0 1-.66.69c-.402.18-1.547 1.553-2.483 2.982a.698.698 0 0 1-1.27-.254c-.311-1.684-.203-6.907-.2-6.957.018-.547.058-1.037.094-1.487.123-1.522.19-2.361-.642-3.304-1.237-1.402-1.728-1.869-3.828-2.313-1.066.705-3.861 2.19-5.218 2.279-.231.015-.842.056-1.113-.458-.274-.52.08-.97.454-1.445.172-.217.375-.476.554-.765-4.255-.05-11.514.765-12.671 2.449-.367.534-.294 2.654-.229 4.523l.01.287c.003.083.004.098-.343 3.405-.164 1.559-.365 3.47-.402 3.882a.713.713 0 0 1-.233.625.68.68 0 0 1-.434.15"/>
    <path fill="#536B86" d="M174.939 138.683a27.502 27.502 0 0 0 3.854-16.457c-1.239-15.225-14.6-26.565-29.841-25.328-15.242 1.237-26.595 14.582-25.356 29.808 1.238 15.225 14.598 26.565 29.84 25.328a27.586 27.586 0 0 0 13.475-4.8l9.978 2.641c1.354.544 2.724-.743 2.265-2.126l-4.215-9.066z"/>
    <path fill="#5E7796" d="M8.93 182.892c-.512 0-.928-.435-.93-.948-.002-.513.413-.874.927-.876l278.403-.964h.003c.512 0 .93.347.93.86a.919.919 0 0 1-.927.92L8.933 182.893H8.93z"/>
    <path fill="#FFF" d="M144.118 115.453a2.994 2.994 0 0 0-.876 2.094c0 .784.324 1.555.876 2.11.551.546 1.322.859 2.102.859a3 3 0 0 0 2.105-.858 3.02 3.02 0 0 0 .87-2.11c0-.783-.317-1.536-.87-2.095-1.096-1.115-3.103-1.115-4.207 0m-1.091 21.355a1.857 1.857 0 0 1-1.655-2.706l3.35-6.541a1.86 1.86 0 0 1 3.312 1.692l-3.35 6.542a1.861 1.861 0 0 1-1.657 1.013m12.778.692a1.857 1.857 0 0 1-1.483-2.979c.026-.035 3.014-4.108 3.014-9.768 0-5.716-2.985-9.729-3.014-9.768a1.859 1.859 0 1 1 2.969-2.241c.153.203 3.767 5.06 3.767 12.009 0 6.95-3.613 11.806-3.767 12.01a1.86 1.86 0 0 1-1.486.738m28.023-85.412c0-18.314-14.862-33.159-33.195-33.159-18.334 0-33.196 14.845-33.196 33.159 0 18.313 14.862 33.158 33.196 33.158 18.333 0 33.195-14.845 33.195-33.158"/>
    <path fill="#7A97FF" d="M150.633 19.627c-17.92 0-32.498 14.562-32.498 32.461 0 17.9 14.579 32.463 32.498 32.463 17.92 0 32.498-14.563 32.498-32.463 0-17.899-14.579-32.461-32.498-32.461m0 66.318c-18.689 0-33.893-15.188-33.893-33.857 0-18.667 15.204-33.855 33.893-33.855s33.894 15.188 33.894 33.855c0 18.669-15.205 33.857-33.894 33.857"/>
    <path fill="#FFF" d="M183.828 52.089c0-18.314-14.862-33.159-33.195-33.159-18.334 0-33.196 14.845-33.196 33.159 0 18.313 14.862 33.158 33.196 33.158 18.333 0 33.195-14.845 33.195-33.158"/>
    <path fill="#7A97FF" d="M150.633 19.627c-17.92 0-32.498 14.562-32.498 32.461 0 17.9 14.579 32.463 32.498 32.463 17.92 0 32.498-14.563 32.498-32.463 0-17.899-14.579-32.461-32.498-32.461m0 66.318c-18.689 0-33.893-15.188-33.893-33.857 0-18.667 15.204-33.855 33.893-33.855s33.894 15.188 33.894 33.855c0 18.669-15.205 33.857-33.894 33.857"/>
    <path fill="#FF9BB1" d="M139.072 72.079c-3.245.973-6.948 3.123-9.878 5.053a33.075 33.075 0 0 0 21.743 8.115c9.328 0 17.752-3.848 23.782-10.036-14.418-6.978-30.03-4.815-35.647-3.132"/>
    <path fill="#5E7796" d="M129.968 77.182a32.726 32.726 0 0 0 20.968 7.6c8.685 0 16.823-3.344 22.99-9.432-13.656-6.358-28.635-4.65-34.72-2.826-2.522.756-5.628 2.322-9.238 4.658m20.968 8.53a33.664 33.664 0 0 1-22.048-8.228.467.467 0 0 1 .05-.74c3.906-2.573 7.271-4.292 10.001-5.11 6.292-1.886 21.91-3.651 35.983 3.159a.464.464 0 0 1 .131.743c-6.396 6.562-14.96 10.176-24.117 10.176"/>
    <path fill="#FF7896" d="M144.378 72.394c1.14-.494 1.606-.992 1.569-1.628-2.909.335-5.296.84-6.875 1.313-3.245.972-6.947 3.123-9.878 5.053a33.339 33.339 0 0 0 5.885 4.085c-.236-3.4-.143-4.727 9.299-8.823"/>
    <path fill="#516A8B" d="M130.362 77.205a32.492 32.492 0 0 0 20.574 7.345c8.511 0 16.493-3.235 22.586-9.13-13.51-6.16-28.238-4.473-34.25-2.674-2.439.732-5.433 2.23-8.91 4.459m20.574 8.74a33.898 33.898 0 0 1-22.2-8.286.696.696 0 0 1 .073-1.109c3.926-2.585 7.311-4.314 10.063-5.138 6.323-1.895 22.016-3.669 36.152 3.172a.697.697 0 0 1 .195 1.113c-6.44 6.608-15.064 10.247-24.283 10.247"/>
    <path fill="#FF7896" d="M164.309 82.428a7.06 7.06 0 0 1 1.035-1.02v-1.224a.38.38 0 0 0-.38-.38h-7.42a.451.451 0 0 0-.451.451v3.923h4.237c1.229-.387 2.3-.936 2.979-1.75"/>
    <path fill="#7A97FF" d="M150.633 19.395c-18.048 0-32.73 14.666-32.73 32.693 0 18.029 14.682 32.695 32.73 32.695 18.047 0 32.73-14.666 32.73-32.695 0-18.027-14.683-32.693-32.73-32.693m0 66.318c-18.561 0-33.66-15.084-33.66-33.625 0-18.54 15.099-33.623 33.66-33.623 18.56 0 33.661 15.084 33.661 33.623 0 18.54-15.1 33.625-33.661 33.625"/>
    <path fill="#9BB3FF" d="M150.633 19.86c-17.792 0-32.265 14.458-32.265 32.228 0 17.772 14.473 32.23 32.265 32.23 17.791 0 32.265-14.458 32.265-32.23 0-17.77-14.474-32.229-32.265-32.229m-33.196 32.23c0 18.283 14.892 33.159 33.196 33.159s33.196-14.876 33.196-33.16c0 18.284-14.892 33.16-33.196 33.16s-33.196-14.876-33.196-33.16m33.196 34.09c-18.817 0-34.126-15.294-34.126-34.09 0-18.796 15.309-34.088 34.126-34.088s34.126 15.292 34.126 34.088-15.309 34.09-34.126 34.09"/>
    <path fill="#DFE6FF" d="M151.124 76.436s-6.708.16-8.487-.072c-1.127-.147.944-5.518.944-5.518s.826-2.547 2.896-2.547 4.647 8.137 4.647 8.137"/>
    <path fill="#516A8B" d="M142.994 75.701c1.544.136 5.385.088 7.172.057-1.266-3.693-2.92-6.762-3.689-6.762-1.53 0-2.226 2.046-2.233 2.067-.742 1.926-1.276 3.94-1.25 4.638m3.664 1.486c-1.66 0-3.326-.03-4.11-.132a.998.998 0 0 1-.74-.493c-.622-1.045.436-4.187 1.121-5.966.027-.089 1-2.994 3.548-2.994.776 0 2.848.84 5.312 8.623a.699.699 0 0 1-.648.908c-.157.003-2.313.054-4.483.054"/>
    <path fill="#FFF" d="M151.061 81.862v-5.687"/>
    <path fill="#516A8B" d="M151.061 82.326a.465.465 0 0 1-.465-.465v-5.686a.465.465 0 0 1 .93 0v5.686a.465.465 0 0 1-.465.465"/>
    <path fill="#DFE6FF" d="M150.884 76.436s6.708.16 8.487-.072c1.128-.147-.944-5.518-.944-5.518s-.826-2.547-2.896-2.547-4.647 8.137-4.647 8.137"/>
    <path fill="#516A8B" d="M151.843 75.758c1.786.031 5.626.079 7.172-.057.026-.698-.509-2.71-1.239-4.604-.019-.055-.715-2.1-2.245-2.1-.756 0-2.437 3.121-3.688 6.76m3.507 1.43c-2.17 0-4.326-.05-4.483-.055a.699.699 0 0 1-.649-.907c2.465-7.783 4.537-8.623 5.313-8.623 2.548 0 3.52 2.905 3.56 3.03.673 1.744 1.731 4.885 1.11 5.93a1 1 0 0 1-.74.493c-.785.103-2.452.132-4.11.132"/>
    <path fill="#FFF" d="M154.47 68.379s-2.374 7.26-3.41 7.26c-1.034 0-4.263-7.26-4.263-7.26V61.64h7.672v6.738z"/>
    <path fill="#516A8B" d="M154.469 68.379h.01-.01zm-6.975-.149c1.218 2.722 2.808 5.775 3.543 6.578.628-.831 1.852-3.86 2.734-6.54v-5.93h-6.277v5.892zm3.567 8.107c-.407 0-1.488 0-4.902-7.675a.696.696 0 0 1-.06-.283V61.64c0-.385.312-.697.697-.697h7.673c.385 0 .698.312.698.697v6.738a.712.712 0 0 1-.035.216c-2.53 7.742-3.61 7.742-4.071 7.742z"/>
    <path fill="#FFF" d="M137.48 50.532l-1.32.112a1.702 1.702 0 0 1-1.834-1.548l-.281-3.318a1.703 1.703 0 0 1 1.55-1.833l1.318-.11a1.702 1.702 0 0 1 1.834 1.546l.28 3.32a1.7 1.7 0 0 1-1.548 1.831"/>
    <path fill="#516A8B" d="M137.056 44.525a.86.86 0 0 0-.085.004l-1.318.111a.99.99 0 0 0-.678.352.988.988 0 0 0-.234.727l.28 3.318a.996.996 0 0 0 1.08.911l1.32-.111a.999.999 0 0 0 .912-1.078l-.281-3.32a.989.989 0 0 0-.353-.677.992.992 0 0 0-.643-.237zm.423 6.007h.01-.01zm-1.463.814c-1.23 0-2.28-.944-2.386-2.191l-.28-3.318a2.371 2.371 0 0 1 .558-1.744 2.38 2.38 0 0 1 1.628-.842l1.318-.112c.64-.049 1.256.145 1.746.558.49.413.789.99.843 1.626l.28 3.319a2.396 2.396 0 0 1-2.185 2.584l-1.32.112a2.484 2.484 0 0 1-.202.008z"/>
    <path fill="#FFF" d="M163.374 50.5l1.315.154a1.702 1.702 0 0 0 1.884-1.486l.39-3.308a1.701 1.701 0 0 0-1.488-1.882l-1.315-.155a1.702 1.702 0 0 0-1.884 1.486l-.39 3.308a1.701 1.701 0 0 0 1.488 1.882"/>
    <path fill="#516A8B" d="M163.962 44.509a.997.997 0 0 0-.62.216.99.99 0 0 0-.373.666l-.39 3.308a.99.99 0 0 0 .21.734c.166.21.403.343.667.375l1.314.154a1.002 1.002 0 0 0 1.11-.876l.39-3.308a.984.984 0 0 0-.21-.733 1 1 0 0 0-.666-.374l-1.316-.156a.976.976 0 0 0-.116-.006m.927 6.854c-.094 0-.188-.005-.282-.017l-1.315-.155a2.383 2.383 0 0 1-1.599-.894 2.379 2.379 0 0 1-.5-1.76l.39-3.309c.074-.633.392-1.2.896-1.597a2.382 2.382 0 0 1 1.762-.5l1.316.156a2.373 2.373 0 0 1 1.598.894c.397.502.575 1.127.5 1.76l-.39 3.309a2.372 2.372 0 0 1-.895 1.596 2.378 2.378 0 0 1-1.48.517"/>
    <path fill="#FFF" d="M153.17 65.118h-5.43c-10.666 0-9.46-4.39-9.94-10.93l-1.07-12.62c0-6.048 4.955-10.998 11.01-10.998h5.43c6.055 0 11.01 4.95 11.01 10.998l-1.116 12.718c-.687 6.973.927 10.832-9.894 10.832"/>
    <path fill="#516A8B" d="M147.74 31.268c-5.686 0-10.312 4.621-10.312 10.3l1.067 12.561c.057.776.091 1.514.123 2.22.235 5.205.364 8.072 9.122 8.072h5.43c8.599 0 8.724-2.303 9-7.35.047-.859.1-1.831.2-2.853l1.115-12.71c-.003-5.619-4.63-10.24-10.315-10.24h-5.43zm5.43 34.547h-5.43c-10.092 0-10.28-4.149-10.517-9.403a75.874 75.874 0 0 0-.119-2.173l-1.07-12.612c-.002-6.507 5.25-11.753 11.706-11.753h5.43c6.455 0 11.708 5.246 11.708 11.695l-1.118 12.779a62.194 62.194 0 0 0-.197 2.798c-.31 5.697-.915 8.67-10.393 8.67z"/>
    <path fill="#516A8B" d="M144.917 47.192a1.283 1.283 0 1 0-2.565.002 1.283 1.283 0 0 0 2.565-.002m13.638 0a1.283 1.283 0 1 0-2.565.002 1.283 1.283 0 0 0 2.565-.002"/>
    <path fill="#FFF" d="M145.662 43s-2.074-.933-4.056.147"/>
    <path fill="#516A8B" d="M141.607 43.75a.605.605 0 0 1-.29-1.134c2.22-1.21 4.497-.21 4.593-.166a.605.605 0 0 1-.495 1.102c-.017-.007-1.835-.792-3.519.125a.603.603 0 0 1-.29.074"/>
    <path fill="#FFF" d="M159.12 43s-2.073-.933-4.055.147"/>
    <path fill="#516A8B" d="M155.066 43.75a.605.605 0 0 1-.29-1.134c2.22-1.208 4.497-.208 4.593-.166a.605.605 0 0 1-.495 1.103c-.018-.01-1.836-.794-3.519.124a.603.603 0 0 1-.29.074"/>
    <path fill="#BDCDFF" d="M163.264 49.082s-2.827 1.125-4.352 4.352c-.81 1.716-3.27 1.748-8.388 1.748h-.098c-5.118 0-7.577-.032-8.388-1.748-1.525-3.227-4.352-4.352-4.352-4.352l-.228.374.345 4.232c.486 6.072-.733 11.83 10.043 11.83h5.258c10.776 0 9.557-5.758 10.043-11.83l.345-4.232-.228-.374z"/>
    <path fill="#516A8B" d="M138.214 50.15l.285 3.481c.06.745.094 1.483.127 2.207.242 5.215.416 8.983 9.22 8.983h5.258c8.805 0 8.979-3.768 9.22-8.983.033-.724.068-1.462.127-2.206l.285-3.478c-.878.55-2.29 1.667-3.193 3.577-1.015 2.148-3.858 2.148-9.02 2.148h-.097c-5.161 0-8.004 0-9.02-2.148a8.535 8.535 0 0 0-3.192-3.582m14.89 16.066h-5.257c-10.138 0-10.37-5.01-10.615-10.312a65.108 65.108 0 0 0-.124-2.16l-.346-4.23a.702.702 0 0 1 .1-.42l.228-.374a.694.694 0 0 1 .854-.284c.126.049 3.102 1.265 4.726 4.702.61 1.293 2.819 1.348 7.756 1.348h.098c4.938 0 7.146-.055 7.757-1.35 1.624-3.435 4.6-4.651 4.726-4.7a.696.696 0 0 1 .853.284l.229.374a.702.702 0 0 1 .1.42l-.347 4.231c-.057.726-.091 1.45-.124 2.159-.245 5.303-.477 10.312-10.614 10.312"/>
    <path fill="#9AB3F2" d="M141.797 53.847l-.069-.992c-1.567-2.649-4.042-3.68-4.042-3.68l-.228.314.346 4.38c.485 5.807-.734 11.648 10.042 11.648h3.995c-10.777 0-9.558-5.863-10.044-11.67"/>
    <path fill="#516A8B" d="M137.946 49.726l.321 3.924c.059.742.093 1.478.127 2.199.237 5.143.425 9.203 9.453 9.203h5.257c9.027 0 9.215-4.06 9.452-9.203.034-.721.068-1.457.127-2.199l.32-3.922a8.805 8.805 0 0 0-3.67 3.904c-.953 2.014-3.743 2.014-8.809 2.014h-.098c-5.066 0-7.856 0-8.809-2.014a8.767 8.767 0 0 0-3.67-3.906m15.157 16.256h-5.257c-9.916 0-10.143-4.901-10.383-10.09a63.044 63.044 0 0 0-.124-2.168l-.346-4.23a.47.47 0 0 1 .067-.28l.228-.375a.466.466 0 0 1 .569-.188c.123.048 3.017 1.23 4.601 4.584.672 1.423 2.928 1.482 7.967 1.482h.098c5.04 0 7.295-.06 7.968-1.482 1.584-3.354 4.478-4.536 4.6-4.584a.465.465 0 0 1 .57.188l.228.375a.47.47 0 0 1 .067.28l-.346 4.231a62.88 62.88 0 0 0-.125 2.168c-.24 5.188-.466 10.089-10.382 10.089"/>
    <path fill="#FFF" d="M150.633 61.641c2.378 0 4.343-.571 4.659-2.872.047-.348-.343-.648-.82-.605-.976.089-2.578.218-3.692.218-1.145 0-2.934-.136-3.99-.225-.474-.04-.863.258-.816.605.312 2.307 2.279 2.88 4.659 2.88"/>
    <path fill="#516A8B" d="M146.588 58.778c.257 1.582 1.474 2.26 4.044 2.26 2.57 0 3.786-.676 4.045-2.255a.306.306 0 0 0-.149-.018c-.9.083-2.583.22-3.749.22-1.181 0-3.038-.141-4.039-.227a.349.349 0 0 0-.152.02m4.044 3.467c-1.186 0-4.798 0-5.258-3.402a1.06 1.06 0 0 1 .295-.875c.282-.297.715-.453 1.173-.414.983.084 2.8.223 3.937.223 1.119 0 2.76-.134 3.64-.215.452-.038.89.112 1.175.409.232.242.34.563.296.88-.464 3.394-4.072 3.394-5.258 3.394"/>
    <path fill="#9BB3FF" d="M163.831 33.817c-1.397-2.708-4.24-5.865-13.455-5.765-.06-.001-.086.003-.086.002 0 0 .068-.003.008-.002-9.216-.1-12.012 3.057-13.41 5.765-1.388 2.694-.259 9.36.18 11.643.135.7 1.905-2.87 1.883-4.52-.024-1.77-.018-3.383 1.196-4.364 2.207-1.784 5.37-1.687 7.281.423 1.941 2.14 4.118 2.24 5.909 0 1.768-2.213 5.07-2.207 7.277-.423 1.214.981 1.215 2.595 1.19 4.363-.022 1.65 1.735 5.221 1.871 4.521.44-2.283 1.546-8.949.156-11.643"/>
    <path fill="#516A8B" d="M149.89 28.514c-8.626 0-11.259 2.94-12.588 5.516-1.168 2.266-.404 7.787.058 10.442.482-.93 1.138-2.567 1.125-3.527-.024-1.762-.048-3.584 1.37-4.73 2.464-1.993 5.87-1.79 7.918.47.908 1.004 1.866 1.54 2.77 1.49.855-.025 1.672-.52 2.43-1.467.837-1.047 2.056-1.706 3.432-1.856 1.582-.172 3.22.325 4.501 1.363 1.413 1.14 1.389 2.966 1.364 4.73-.013.957.635 2.589 1.113 3.52.462-2.649 1.216-8.1.035-10.39-1.351-2.618-4.05-5.469-13.037-5.469h-.033c-.034 0-.07-.042-.104-.045-.119-.001-.237-.047-.353-.047m13.711 17.5a.49.49 0 0 1-.052-.002c-.865-.09-2.228-3.774-2.21-5.08.026-1.895-.032-3.197-1.019-3.994-1.091-.883-2.48-1.306-3.816-1.162-1.144.124-2.114.648-2.805 1.512-.922 1.153-2.004 1.782-3.127 1.817-1.188.032-2.393-.585-3.49-1.796-1.713-1.888-4.567-2.05-6.643-.371-.993.8-1.05 2.102-1.024 3.994.017 1.306-1.352 4.99-2.222 5.08-.234.021-.514-.112-.582-.464-.515-2.672-1.56-9.14-.136-11.899 1.472-2.856 4.372-5.972 13.826-5.972h-.33v-.045c10.236-.09 12.596 3.14 14.07 5.995 1.438 2.786.5 9.27-.012 11.932-.063.326-.207.456-.428.456"/>
    <path fill="#83A7FB" d="M152.538 28.1a34.188 34.188 0 0 0-2.162-.048c-.06-.001-.086.003-.086.002 0 0 .068-.003.008-.002-9.216-.1-12.012 3.056-13.41 5.765-1.389 2.695-.259 9.36.18 11.642.136.701 1.905-2.87 1.883-4.52-.025-1.768-.018-3.382 1.196-4.363.175-.141 3.097-1.133 3.283-1.251.092-.938-1.079-6.47 9.108-7.225"/>
    <path fill="#516A8B" d="M149.892 28.747c-8.503 0-11.085 2.871-12.383 5.39-.781 1.516-.789 5.039-.041 9.587.399-.904.794-2.07.785-2.776-.024-1.732-.05-3.697 1.455-4.914 2.562-2.07 6.103-1.858 8.238.497.86.95 1.753 1.453 2.59 1.412.783-.024 1.542-.488 2.255-1.38.876-1.096 2.15-1.785 3.59-1.942 1.64-.179 3.34.338 4.672 1.413 1.5 1.212 1.474 3.179 1.45 4.914-.01.702.378 1.858.772 2.76.6-3.73.841-7.888-.064-9.643-1.32-2.559-3.956-5.459-12.828-5.459h-.03c-.04 0-.08.074-.12.07-.115 0-.228.07-.34.07m-12.75 17.5a.772.772 0 0 1-.76-.654c-.645-3.35-1.518-9.212-.114-11.933 1.504-2.915 4.438-5.982 14.036-5.982h.075c9.713 0 12.686 3.294 14.071 5.982 1.472 2.851.426 9.326-.091 12.013-.091.474-.486.651-.834.61-1.136-.116-2.435-4.134-2.42-5.332.026-1.827-.025-3.09-.931-3.822-1.044-.845-2.372-1.255-3.644-1.116-.754.083-1.826.393-2.65 1.424-.966 1.208-2.108 1.865-3.301 1.902-1.256.037-2.526-.608-3.67-1.872-1.627-1.795-4.345-1.947-6.323-.348-.911.736-.964 1.987-.938 3.812.015 1.199-1.29 5.196-2.432 5.312a.653.653 0 0 1-.074.005"/>
    <path fill="#FFF" d="M149.306 79.607a.74.74 0 1 0-1.478.001.74.74 0 0 0 1.478 0m107.911 42.49c0-18.032-14.635-32.65-32.687-32.65-18.053 0-32.687 14.618-32.687 32.65 0 18.032 14.634 32.65 32.687 32.65 18.052 0 32.687-14.618 32.687-32.65"/>
    <path fill="#00EEBD" d="M224.53 90.145c-17.639 0-31.988 14.333-31.988 31.953 0 17.619 14.35 31.954 31.988 31.954 17.639 0 31.988-14.335 31.988-31.954 0-17.62-14.35-31.953-31.988-31.953m0 65.3c-18.408 0-33.384-14.958-33.384-33.347 0-18.388 14.976-33.348 33.384-33.348s33.384 14.96 33.384 33.348c0 18.389-14.976 33.348-33.384 33.348"/>
    <path fill="#FF9BB1" d="M210.93 110.874s-1.689 22.295 4.625 34.029c4.481 8.328 10.453 3.833 10.453 3.833l-.628-28.04-14.45-9.822z"/>
    <path fill="#5E7796" d="M211.345 111.718c-.221 4.097-.884 22.737 4.62 32.966 1.436 2.667 3.16 4.24 5.127 4.676 2.08.46 3.87-.508 4.445-.868l-.617-27.545-13.575-9.23zm10.887 38.695c-.424 0-.87-.043-1.329-.143-2.248-.493-4.185-2.224-5.758-5.146-6.305-11.72-4.748-33.37-4.678-34.286a.467.467 0 0 1 .726-.349l14.448 9.824c.125.085.2.223.204.374l.628 28.039a.466.466 0 0 1-.185.382c-.083.062-1.766 1.305-4.056 1.305z"/>
    <path fill="#FF87AD" d="M218.508 144.904c-5.193-9.65-4.971-26.434-4.73-32.094l-2.847-1.936s-1.69 22.295 4.624 34.03c2.734 5.08 6.021 5.387 8.17 4.854-1.69-.445-3.556-1.768-5.217-4.854"/>
    <path fill="#516A8B" d="M211.557 112.142c-.235 4.792-.696 22.566 4.613 32.432 1.4 2.602 3.071 4.136 4.967 4.558 1.876.417 3.521-.386 4.164-.768l-.61-27.293-13.134-8.929zm10.671 38.503c-.44 0-.9-.044-1.374-.148-2.318-.508-4.307-2.279-5.913-5.263-6.339-11.78-4.775-33.494-4.706-34.413a.699.699 0 0 1 1.089-.524l14.448 9.823a.7.7 0 0 1 .305.562l.628 28.039a.697.697 0 0 1-.278.572c-.085.065-1.828 1.352-4.199 1.352z"/>
    <path fill="#FFF" d="M227.627 141.488v-5.72h-6.505v5.72l.015.529c-4.201.29-7.481.957-9.568 1.563-2.589.751-5.46 2.197-8.038 3.71 5.647 4.287 12.76 6.939 20.497 6.851 7.23-.08 16.252-3.213 22.434-8.434-6.465-2.603-13.045-3.622-18.835-3.808v-.411z"/>
    <path fill="#516A8B" d="M227.627 141.488h.009-.01zm-22.822 5.873c5.701 4.06 12.297 6.172 19.216 6.083 7.01-.078 15.316-3.069 21.068-7.522-5.364-2.008-11.24-3.126-17.485-3.326a.696.696 0 0 1-.675-.698v-5.433h-5.11l.015 5.532a.697.697 0 0 1-.65.715c-4.712.326-7.925 1.103-9.42 1.537-1.969.57-4.305 1.616-6.959 3.112zm18.847 7.48c-7.415 0-14.51-2.415-20.543-6.997a.698.698 0 0 1 .069-1.156c3.135-1.838 5.893-3.109 8.196-3.777 1.478-.43 4.568-1.18 9.05-1.54v-5.603c0-.385.313-.697.698-.697h6.505c.385 0 .697.312.697.697v5.46c6.592.281 12.779 1.57 18.399 3.832a.699.699 0 0 1 .19 1.18c-5.987 5.056-15.18 8.512-22.877 8.598l-.384.003z"/>
    <path fill="#85F4D3" d="M241.707 143.9l-4.985-1.331a48.752 48.752 0 0 0-2.359-.451c-1.38 2.287-6.35 7.091-8.897 8.831-2.548-1.74-7.517-6.544-8.898-8.831a49.19 49.19 0 0 0-2.359.45l-4.985 1.332s-.205 4.512-.417 6.48c4.692 2.557 7.267 4.134 16.66 4.31 5.65.059 11.965-2.102 16.657-4.66-.211-1.967-.417-6.13-.417-6.13"/>
    <path fill="#5E7796" d="M209.547 149.99l.053.028c4.345 2.374 6.968 3.807 15.88 3.974 4.736.065 10.656-1.574 15.904-4.356-.153-1.63-.291-4.126-.348-5.195l-4.493-1.198a40.81 40.81 0 0 0-1.845-.36c-1.715 2.5-6.386 6.966-8.838 8.642a.697.697 0 0 1-.788 0c-2.453-1.676-7.123-6.143-8.838-8.641-.643.113-1.318.239-1.868.365l-4.469 1.192c-.055 1.133-.195 3.864-.35 5.548m16.135 5.02h-.223c-9.26 0-12.152-1.565-16.53-3.956l-.457-.156c-.247-.134-.39-.36-.359-.64.208-1.923.412-6.368.414-6.413a.683.683 0 0 1 .517-.63l4.985-1.324c.74-.17 1.636-.326 2.42-.462.285-.05.569.082.717.328 1.259 2.087 5.745 6.462 8.3 8.337 2.555-1.875 7.041-6.25 8.3-8.336a.69.69 0 0 1 .717-.326c.783.136 1.678.295 2.396.46l5.008 1.335a.699.699 0 0 1 .518.64c.001.041.206 4.165.414 6.089.03.28-.112.362-.36.497-5.466 2.98-11.718 4.557-16.777 4.557"/>
    <path fill="#00EEBD" d="M213.62 145.258c.345-.675 2.08-1.26 4.097-1.728a11.542 11.542 0 0 1-.928-1.18c-.844.133-1.72.277-2.426.426l-5.127 1.257s-.211 4.266-.429 6.126c2.029 1.017 3.677 1.868 5.618 2.526-.648-2.89-1.332-6.392-.804-7.427"/>
    <path fill="#516A8B" d="M209.547 149.99l.053.028c4.345 2.374 6.968 3.807 15.88 3.974 4.736.065 10.656-1.574 15.904-4.356-.153-1.63-.291-4.126-.348-5.195l-4.493-1.198a40.81 40.81 0 0 0-1.845-.36c-1.715 2.5-6.386 6.966-8.838 8.642a.697.697 0 0 1-.788 0c-2.453-1.676-7.123-6.143-8.838-8.641-.643.113-1.318.239-1.868.365l-4.469 1.192c-.055 1.133-.195 3.864-.35 5.548m16.135 5.02h-.223c-9.26 0-12.152-1.565-16.53-3.956l-.457-.156c-.247-.134-.39-.36-.359-.64.208-1.923.412-6.368.414-6.413a.683.683 0 0 1 .517-.63l4.985-1.324c.74-.17 1.636-.326 2.42-.462.285-.05.569.082.717.328 1.259 2.087 5.745 6.462 8.3 8.337 2.555-1.875 7.041-6.25 8.3-8.336a.69.69 0 0 1 .717-.326c.783.136 1.678.295 2.396.46l5.008 1.335a.699.699 0 0 1 .518.64c.001.041.206 4.165.414 6.089.03.28-.112.362-.36.497-5.466 2.98-11.718 4.557-16.777 4.557"/>
    <path fill="#FF9BB1" d="M224.53 90.284c-17.562 0-31.849 14.271-31.849 31.814s14.287 31.814 31.849 31.814c17.562 0 31.849-14.271 31.849-31.814s-14.287-31.814-31.85-31.814m0 65.301c-18.485 0-33.523-15.022-33.523-33.487 0-18.465 15.038-33.487 33.524-33.487 18.485 0 33.524 15.022 33.524 33.487 0 18.465-15.039 33.487-33.524 33.487"/>
    <path fill="#FFF" d="M224.367 138.096c-4.294-.181-12.317-6.16-12.802-13l-1.082-12.983c0-6.326 5.011-11.502 11.137-11.502h5.494c6.126 0 11.137 5.176 11.137 11.502l-.276 12.974c-.696 7.292-9.314 13.19-13.608 13.009"/>
    <path fill="#516A8B" d="M224.396 137.4c3.8.165 12.225-5.466 12.885-12.379l.273-12.923c0-5.943-4.684-10.79-10.44-10.79h-5.493c-5.757 0-10.44 4.847-10.44 10.805l1.08 12.925c.278 3.921 3.093 7.034 4.748 8.54 2.414 2.201 5.383 3.737 7.387 3.821m.178 1.398c-.08 0-.158-.002-.236-.005-4.837-.204-12.964-6.532-13.47-13.646l-1.082-12.974c-.002-6.785 5.308-12.259 11.835-12.259h5.492c6.528 0 11.837 5.474 11.837 12.2l-.277 12.989c-.713 7.486-9.17 13.695-14.099 13.695"/>
    <path fill="#516A8B" d="M224.506 131.884a6.65 6.65 0 0 1-2.854-.674.602.602 0 0 1-.253-.814.608.608 0 0 1 .817-.255c.022.012 2.303 1.173 4.253.013a.605.605 0 0 1 .62 1.037 4.98 4.98 0 0 1-2.583.693m-10.18-11.54a.604.604 0 0 1-.304-1.126c3.234-1.878 6.067-.093 6.187-.017a.604.604 0 1 1-.655 1.016c-.096-.063-2.348-1.451-4.924.045a.6.6 0 0 1-.304.082"/>
    <path fill="#516A8B" d="M218.367 120.427a1.263 1.263 0 1 0-2.526.001 1.263 1.263 0 0 0 2.526-.001m16.02-.083a.6.6 0 0 1-.304-.082c-2.578-1.496-4.83-.105-4.925-.045a.606.606 0 0 1-.834-.183.603.603 0 0 1 .18-.833c.118-.076 2.952-1.862 6.187.017a.604.604 0 0 1-.304 1.126"/>
    <path fill="#516A8B" d="M230.346 120.427a1.263 1.263 0 1 1 2.526.001 1.263 1.263 0 0 1-2.526-.001m-22.241-5.202a.603.603 0 0 1-.602-.557l-.206-2.6c-.002-2.472.534-4.8 1.59-6.967a.6.6 0 0 1 .594-.337.614.614 0 0 1 .506.362.602.602 0 0 1-.066.617 14.457 14.457 0 0 0-1.417 6.278l.204 2.552a.603.603 0 0 1-.554.65c-.017.002-.033.002-.049.002m32.525 0c-.017 0-.033 0-.05-.002a.603.603 0 0 1-.554-.65l.206-2.6a14.429 14.429 0 0 0-1.418-6.23.602.602 0 0 1-.065-.62.606.606 0 0 1 1.099-.021 15.662 15.662 0 0 1 1.592 6.92l-.209 2.646a.603.603 0 0 1-.602.557"/>
    <path fill="#85F4D3" d="M238.577 114.11l-.439 12.157c3.414.123 5.152-1.533 5.229-3.63l.162-4.53c.077-2.097-1.539-3.874-4.952-3.996"/>
    <path fill="#5E7796" d="M239.024 114.604l-.404 11.204c1.288-.02 2.354-.325 3.103-.893.737-.56 1.144-1.353 1.179-2.295l.163-4.53c.07-1.95-1.466-3.26-4.04-3.486m-.542 12.134c-.12 0-.24-.002-.362-.006a.467.467 0 0 1-.448-.482l.439-12.156a.46.46 0 0 1 .148-.323.428.428 0 0 1 .334-.125c4.1.148 5.472 2.505 5.401 4.478l-.164 4.53a3.874 3.874 0 0 1-1.545 3c-.938.713-2.247 1.084-3.803 1.084"/>
    <path fill="#FFF" d="M240.064 125.86l-1.909-.07.422-11.679 1.909.068z"/>
    <path fill="#516A8B" d="M239.247 114.86l-.386 10.708c1.128-.05 2.06-.337 2.721-.839.68-.516 1.056-1.248 1.087-2.117l.164-4.53c.063-1.751-1.294-2.95-3.586-3.222m-.764 12.111c-.122 0-.245-.003-.37-.007a.694.694 0 0 1-.672-.722l.438-12.156a.701.701 0 0 1 .222-.486.723.723 0 0 1 .5-.186c4.272.154 5.702 2.638 5.626 4.719l-.163 4.53a4.106 4.106 0 0 1-1.637 3.177c-.98.742-2.337 1.131-3.944 1.131"/>
    <path fill="#C8FAE9" d="M239.055 104.327c-.034-.05-.07-.15-.105-.198-1.225-1.7-2.871-3.726-5.057-4.867-.138-.07-2.967-1.878-7.154-1.878h-4.418c-4.051 0-7.111 1.808-7.25 1.878-2.186 1.141-3.832 2.96-5.056 4.66-.035.05-.07.253-.104.302-.151.212-.286.506-.42.726l14.701 4.643 14.993-4.604c-.136-.22.02-.45-.13-.662"/>
    <path fill="#516A8B" d="M210.386 104.599l13.809 4.362 14.302-4.393-.038-.075c-1.159-1.618-2.756-3.604-4.846-4.696a3.655 3.655 0 0 1-.082-.047c-.913-.53-3.4-1.762-6.792-1.762h-4.418c-3.417 0-6.154 1.36-6.913 1.778-1.786.935-3.358 2.38-4.857 4.446a1.118 1.118 0 0 1-.165.387m13.806 5.598a.573.573 0 0 1-.181-.028l-14.703-4.643a.603.603 0 0 1-.334-.892c.05-.08.099-.172.15-.265.078-.146.16-.295.246-.425.045-.16.08-.272.156-.378 1.624-2.253 3.346-3.837 5.265-4.84 1.087-.598 3.925-1.946 7.53-1.946h4.418c3.685 0 6.402 1.346 7.4 1.925 2.35 1.231 4.065 3.356 5.301 5.071.035.047.076.122.112.198l-.497.354.494-.349c.193.273.185.552.18.7.099.16.102.351.037.527a.627.627 0 0 1-.404.36l-14.992 4.605a.605.605 0 0 1-.178.026"/>
    <path fill="#FF9BB1" d="M238.2 111.052c-.831-4.09-3.168-8.575-8.873-10.371-.717-.15-1.455-.39-2.213-.39h-5.493c-2.244 0-4.722 1.385-4.835 1.442a11.706 11.706 0 0 0-4.124 3.567c-.028.04-.058.088-.085.128-.144.203-.273.417-.4.626-.09.146-.18.294-.262.445-.05.087-.095.177-.141.265a11.702 11.702 0 0 0-1.292 5.349l.553 6.632c1.484-1.39 6.332-1.611 8.926-2.994 3.128-1.669 4.231-5.317 4.231-5.317s1.211 3.648 4.34 5.317c3.127 1.668 9.66 1.64 9.482 4.02-.017.222.016.236.073.08l.165-7.738c0-.358-.022-.711-.052-1.061"/>
    <path fill="#516A8B" d="M224.192 109.739c.3 0 .567.191.662.475.012.034 1.171 3.41 4.006 4.922 1.125.6 2.782.978 4.385 1.344 1.598.365 3.149.72 4.188 1.312l.12-5.694c0-.31-.018-.629-.045-.946-.72-3.505-2.762-8.034-8.392-9.806a10.828 10.828 0 0 1-.505-.115c-.523-.125-1.016-.243-1.497-.243h-5.493c-1.818 0-3.883 1.027-4.472 1.342a11.081 11.081 0 0 0-3.92 3.378l-.619-.33.543.443c-.128.182-.24.364-.35.544-.122.201-.202.332-.275.466l-.138.26a10.92 10.92 0 0 0-1.21 5.022l.455 5.44c.986-.452 2.3-.757 3.666-1.074 1.578-.366 3.209-.746 4.331-1.343 2.825-1.507 3.882-4.87 3.892-4.904.09-.29.356-.49.66-.493h.008m13.835 10.912a.723.723 0 0 1-.15-.016c-.185-.04-.613-.21-.56-.917.065-.863-2.402-1.426-4.383-1.878-1.692-.387-3.443-.787-4.731-1.475-2.026-1.08-3.295-2.896-3.991-4.19-.667 1.298-1.897 3.11-3.923 4.19-1.284.685-3.006 1.085-4.673 1.472-1.693.393-3.444.8-4.103 1.416a.699.699 0 0 1-1.173-.45l-.553-6.632c-.003-2.02.47-3.979 1.366-5.724l.153-.289a9.97 9.97 0 0 1 .26-.445c.173-.28.3-.488.44-.686l.091-.135a12.415 12.415 0 0 1 4.365-3.777c.878-.467 3.076-1.521 5.159-1.521h5.493c.647 0 1.245.143 1.824.282.178.043.356.086.532.123 6.364 2 8.625 7.038 9.413 10.913.006.026.01.053.012.079.032.37.055.743.055 1.122l-.165 7.753a.694.694 0 0 1-.043.226c-.177.48-.512.56-.715.56"/>
    <path fill="#FF87AD" d="M216.239 106.545c.046-.085.092-.171.14-.255.083-.146.173-.287.263-.428.127-.201.256-.406.4-.6.027-.04.057-.086.085-.124.999-1.333 2.341-2.145 4.124-3.04.113-.055 2.59-.996 4.835-.996h-4.465c-2.245 0-4.722.941-4.835.996-1.783.895-3.126 1.902-4.124 3.235-.028.037-.059-.013-.086.026-.143.194-.272.351-.4.55-.089.142-.178.26-.261.405-.05.084-.094.158-.142.243a10.873 10.873 0 0 0-1.291 5.135l.553 6.372c.783-.705 2.504-1.098 4.335-1.507l-.423-4.87c0-1.854.471-3.604 1.292-5.142"/>
    <path fill="#516A8B" d="M224.192 109.97c.2 0 .378.128.442.318.012.035 1.196 3.496 4.116 5.053 1.152.614 2.826.996 4.443 1.366 1.776.405 3.489.797 4.464 1.508l.13-6.111c0-.327-.02-.658-.048-.986-.73-3.567-2.808-8.185-8.552-9.994a12.202 12.202 0 0 1-.521-.119c-.514-.123-1.043-.25-1.552-.25h-5.493c-1.872 0-3.981 1.049-4.582 1.37a11.313 11.313 0 0 0-4 3.446l-.429-.193.35.312c-.129.184-.242.37-.355.553-.125.206-.207.34-.28.477l-.14.262a11.298 11.298 0 0 0-1.238 5.13l.485 5.799c.982-.524 2.42-.857 3.921-1.206 1.593-.37 3.24-.752 4.389-1.364 2.914-1.555 3.994-5.006 4.005-5.042a.467.467 0 0 1 .439-.329h.006zm13.837 10.45a.432.432 0 0 1-.101-.012c-.28-.06-.408-.286-.379-.672.08-1.063-2.28-1.602-4.564-2.123-1.677-.384-3.412-.78-4.673-1.452-2.2-1.174-3.487-3.24-4.106-4.504-.588 1.267-1.826 3.33-4.026 4.504-1.257.67-2.965 1.067-4.616 1.45-1.724.4-3.507.813-4.211 1.474a.467.467 0 0 1-.782-.301l-.552-6.632a12.26 12.26 0 0 1 1.34-5.6l.15-.28c.078-.145.168-.292.257-.438.168-.276.293-.48.43-.673l.09-.133a12.166 12.166 0 0 1 4.285-3.707c.862-.46 3.02-1.495 5.05-1.495h5.493c.619 0 1.204.14 1.769.276.181.043.36.087.54.124 6.234 1.96 8.457 6.918 9.232 10.732a12.354 12.354 0 0 1 .061 1.155l-.164 7.748a.465.465 0 0 1-.029.15c-.127.347-.352.408-.494.408z"/>
    <path fill="#85F4D3" d="M210.36 114.005l1.03 12.12c-3.404.289-5.221-1.28-5.399-3.371l-.383-4.516c-.178-2.092 1.349-3.945 4.753-4.233"/>
    <path fill="#5E7796" d="M209.937 114.52c-2.56.35-4.03 1.733-3.866 3.678l.384 4.516c.08.94.526 1.712 1.29 2.235.775.531 1.851.777 3.142.742l-.95-11.172zm.677 12.104c-1.358 0-2.52-.31-3.396-.909a3.872 3.872 0 0 1-1.69-2.922l-.384-4.516c-.167-1.968 1.089-4.388 5.177-4.735a.463.463 0 0 1 .502.423l1.03 12.121a.466.466 0 0 1-.424.503c-.278.023-.55.035-.815.035z"/>
    <path fill="#FFF" d="M209.446 125.812l1.904-.162-.989-11.645-1.904.161z"/>
    <path fill="#516A8B" d="M209.727 114.786c-2.276.384-3.572 1.646-3.424 3.393l.384 4.515c.073.867.484 1.581 1.189 2.063.68.466 1.615.706 2.732.706h.026l-.907-10.677zm.888 12.07c-1.406 0-2.614-.322-3.528-.949a4.104 4.104 0 0 1-1.791-3.095l-.384-4.515c-.176-2.075 1.13-4.625 5.39-4.987a.696.696 0 0 1 .755.636l1.028 12.121a.698.698 0 0 1-.635.754 9.895 9.895 0 0 1-.835.035z"/>
    <path fill="#FF9BB1" d="M237.754 126.437c-1.053 4.565-6.317 9.005-10.033 10.93.17 3.016-.32 10.84-.504 14.314 2.874-.849 7.585-6.264 9.25-13.581 1.034-5.987 1.39-11.643 1.287-11.663"/>
    <path fill="#516A8B" d="M228.438 137.775c.094 2.83-.22 8.483-.433 12.293l-.029.512c2.604-1.524 6.354-6.239 7.81-12.634.5-2.891.83-5.637 1.031-7.712-2.145 3.306-5.746 6.092-8.38 7.54m-1.22 14.604a.698.698 0 0 1-.697-.734l.091-1.654c.209-3.747.558-10.02.413-12.584a.697.697 0 0 1 .376-.658c3.996-2.07 8.746-6.442 9.674-10.467a.696.696 0 0 1 .81-.529c.676.129.747.142.348 4.344a111.689 111.689 0 0 1-1.077 8.123c-1.645 7.233-6.362 13.134-9.74 14.13a.68.68 0 0 1-.198.029"/>
    <path fill="#DBE7EF" d="M230.895 124.68a.612.612 0 1 1-1.224 0 .612.612 0 0 1 1.224 0m2.73-1.092a.612.612 0 1 1-1.223 0 .612.612 0 0 1 1.223 0m0 2.849a.612.612 0 1 1-1.223 0 .612.612 0 0 1 1.223 0m-16.229-1.757a.612.612 0 1 0 1.224 0 .612.612 0 0 0-1.224 0m-2.73-1.092a.612.612 0 1 0 1.224 0 .612.612 0 0 0-1.224 0m0 2.849a.612.612 0 1 0 1.224 0 .612.612 0 0 0-1.224 0"/>
    <path fill="#FF9BB1" d="M269.454 141.011a2.266 2.266 0 0 1-1.715-.004 2.264 2.264 0 0 1-1.222-1.202 2.28 2.28 0 0 1-.006-1.724 2.27 2.27 0 0 1 1.209-1.212c1.091-.461 2.487.112 2.938 1.207.222.547.23 1.166.006 1.711a2.292 2.292 0 0 1-1.213 1.223l.003.001z"/>
    <path fill="#7A97FF" d="M111.486 34.47c.169-.183.293-.4.365-.623a1.59 1.59 0 0 0-.425-1.652l-3.558-3.41.017-.01c-.65-.62-1.672-.601-2.292.05a1.615 1.615 0 0 0 .042 2.287l3.569 3.401a1.617 1.617 0 0 0 2.282-.043m154.959 119.074a1.694 1.694 0 0 0-.47-.549 1.597 1.597 0 0 0-1.703-.139l-4.39 2.244-.002-.02a1.614 1.614 0 0 0-.704 2.18c.4.8 1.377 1.11 2.178.71l4.387-2.258a1.613 1.613 0 0 0 .704-2.168"/>
    <path fill="#FF9BB1" d="M99.05 50.53a2.33 2.33 0 0 0-.86 3.18 2.33 2.33 0 1 0 4.044-2.32 2.336 2.336 0 0 0-3.184-.86m3.737 6.497a5.178 5.178 0 0 1-7.058-1.905 5.167 5.167 0 0 1 1.907-7.05 5.179 5.179 0 0 1 7.059 1.905 5.166 5.166 0 0 1-1.908 7.05M27.022 83.65c-.007-.25-.07-.49-.175-.7a1.595 1.595 0 0 0-1.46-.885l-4.932.049.007-.02c-.9.012-1.617.739-1.605 1.638 0 .894.736 1.606 1.632 1.606l4.933-.063a1.615 1.615 0 0 0 1.6-1.625"/>
    <path fill="#85F4D3" d="M46.695 79.811a1.497 1.497 0 0 0-1.827 1.111 10.618 10.618 0 0 1-1.693 3.656 10.868 10.868 0 0 1-3.358 3.036 10.486 10.486 0 0 1-3.801 1.313 1.509 1.509 0 0 0-1.298 1.702 1.495 1.495 0 0 0 1.702 1.29l.023-.02a13.427 13.427 0 0 0 4.908-1.687 13.83 13.83 0 0 0 4.286-3.877 13.185 13.185 0 0 0 2.168-4.707 1.5 1.5 0 0 0-1.11-1.817m234.644 64.135a1.495 1.495 0 0 0-1.072 1.85c.343 1.308.435 2.657.265 4.019a10.843 10.843 0 0 1-1.491 4.271 10.477 10.477 0 0 1-2.71 2.972 1.507 1.507 0 0 0-.322 2.114 1.499 1.499 0 0 0 2.113.318l.01-.029a13.411 13.411 0 0 0 3.5-3.828 13.818 13.818 0 0 0 1.905-5.453 13.163 13.163 0 0 0-.354-5.169 1.501 1.501 0 0 0-1.844-1.065"/>
    <path fill="#FF9BB1" d="M196.12 60.177c.096.23.24.433.414.592.435.4 1.09.549 1.68.305l4.59-1.802.001.02a1.615 1.615 0 0 0 .914-2.1c-.32-.837-1.262-1.24-2.098-.92l-4.587 1.815a1.614 1.614 0 0 0-.914 2.09"/>
  </g>
</svg>
